<svg version="1" xmlns="http://www.w3.org/2000/svg" width="5556" height="5556" viewBox="0 0 4167.000000 4167.000000"><path d="M0 2083.5V4167h4167V0H0v2083.5zM1685.8 565.2c12 3.7 23.3 10.2 38.3 22 7.9 6.3 43.2 34 78.4 61.7 35.2 27.7 65 51.3 66.2 52.5l2.2 2.1-10.3 17.5c-27.9 47.5-53.5 98.2-77.2 152.7-8.4 19.3-29 70.4-31.4 77.7l-1.2 3.8-4.7-.5c-17.2-2.2-43.2-2.9-60.8-1.8-55 3.4-102.2 16-150.3 40.1-93.8 47-162.2 134-188.4 239.1-7.6 30.6-10.6 56.2-10.6 89.9 0 34.4 3.1 59.6 10.9 90.4 16.4 63.7 47.5 118.1 94.6 165.1 72.3 72.4 169.9 111 273.3 108.2 57-1.6 103.3-13.1 152.2-37.8 121.6-61.4 202.1-192.4 202-328.6-.1-107.4-49.2-211.3-133.2-281.4-22.6-18.8-49.1-36.1-74.5-48.5l-13.1-6.5 5-12.2c20.4-49.4 49.2-109.2 74.6-154.7 9.5-17.1 26.1-44.8 27.2-45.5.5-.3 342.3 268.6 759.7 597.7 417.3 329 780.9 615.5 807.8 636.7 79.9 62.7 92.6 72.9 100.8 81 22.9 22.4 27.2 53.7 11.4 83.5-7.5 14.1-21.1 26.3-35 31.2-3.8 1.4-5.5 1.3-19.2-.5-8.2-1.2-28-3.4-44-5-39.3-4-2869.8-369-2904.5-374.6-33-5.3-53.5-8.1-65-9.1-5.6-.4-9.2-1.2-10.4-2.3-7.9-6.7-22.7-30.2-27-42.7-5.2-15.4-6.8-25-6.8-40.9 0-13.5.3-16.2 3.1-26.7 3.2-12.2 9.1-25.4 16.4-36.3 6-9.1 1081.1-1084 1089.5-1089.4 15.9-10.1 36.9-13.2 54-7.9zM551 1938.4c25.7 9.8 48.3 14.6 100 21 31.2 3.9 884.1 109.5 2504 310.2 215.3 26.6 396.9 48.9 403.5 49.5 6.6.6 17.2.8 23.5.4 12.5-.7 21 .7 26 4.3 7.3 5.3 16.2 32 18.2 54.6 1.4 15.6.4 72.8-1.6 90.1-3.5 30.6-11.3 71.1-20.6 107-10.7 41.4-8.4 35.8-98.6 236.2-46 102.2-95.7 212.8-110.4 245.8-49.2 110.3-55.8 124-68 141.9-11.4 16.7-19.5 26.3-36.9 43.6-17.3 17.2-25.5 23.9-40.7 33.2-13.3 8.2-21.6 12.1-33.9 16.1-20.4 6.5-23.9 7-49.3 6.4-25.3-.5-30.9-1.5-54.5-9.7-22.9-7.9-51.2-24.1-74.7-42.9-12-9.6-39-36.4-50.4-50.1-19.4-23.2-41.8-60.8-50.9-85-5.2-14-52.3-164.3-62.8-200.5-29.8-102.7-40.9-135.1-58.4-171-27.8-57.2-77-99.8-140-121.3-66.2-22.6-139.2-17.2-199.5 14.9-44.4 23.7-83.3 63.5-104 106.4-11.6 24.1-14 31.4-49 152.5-26.3 91-44.2 151.7-47.7 162-1.4 4.1-5.9 13.6-10.2 21-6.8 12-8.9 14.8-19.1 25.1-16.9 17.1-32.7 26.8-54.2 33.3-15.4 4.6-24.5 5.9-43.3 5.8-12.7 0-18.1-.5-25.9-2.2-28-6.2-47.8-16.6-66.6-35.1-10.3-10.1-16.3-18.5-24-33.1-5.6-10.9-8.8-19.5-17.6-48.8-3.6-11.8-23.6-76.2-44.4-143-20.8-66.8-42.1-135.5-47.4-152.5-20.7-67.3-32.6-97-50.1-125-26.4-42.1-63.8-72.3-114.5-92.5-43.5-17.3-98.3-21.8-144.9-11.9-57.7 12.3-111.1 44.9-142.5 86.9-18.2 24.4-29.3 46.5-47.6 95-5.1 13.5-15.3 40-22.7 59-7.4 19-21.6 55.4-31.4 81-14.8 38.4-18.8 47.7-22.8 53.5-2.7 3.9-9.4 15.3-15 25.3-18.6 33.5-36.6 58.1-62 84.5-32.9 34.1-64.7 53.6-100.7 61.8-3.9.9-12.7 1.4-26.4 1.4-18.2 0-21.6-.3-30-2.4-36.4-9.1-69.2-28-102.1-58.8-42.8-40-68.1-77.3-96.8-142.8-4.3-9.9-23.6-52.2-42.9-94-154.3-334.9-291.1-634-299-653.5-25.8-64.2-36.8-97-43.6-130.6-2.6-12.5-4.3-31-3.3-33.8.6-1.4 2-1 9.4 2.7 4.9 2.4 13.1 6 18.3 8.1zm90.3 587.1c64.6 140.8 120.7 263.2 124.5 272 3.9 8.8 10.9 25 15.7 36 4.8 11 14.7 32.4 22 47.5 7.3 15.1 15.8 33.1 18.9 39.9 35.6 78.5 110.4 161.1 182.5 201.6 70.2 39.3 154.2 47.2 225.7 21 15.5-5.6 42.6-19.5 57.4-29.4 38.4-25.5 71.8-58.3 104.8-102.6 29.1-39.1 50.2-75.6 68.5-118.6 8.2-19.1 67.7-172.5 75.1-193.4 9.1-25.8 18.6-41.7 34.1-57 20.1-19.9 42.9-31.5 71.5-36.1 13.3-2.2 38.1-1.8 49.3.6 20.6 4.6 36.8 11.4 51.9 21.9 15.5 10.7 30.8 29 40.6 48.6 5.2 10.4 2.9 3.2 69.6 217.6 31.6 101.6 59.4 189.5 61.8 195.5 24.1 61.8 68.6 111.5 124.2 138.8 46.9 23 102.7 31.4 152.1 23 49.1-8.4 95.7-32.5 131.5-68.4 14.6-14.6 23.1-24.8 34.1-41.5 8.9-13.3 21.9-38.9 27.2-53.5 4.4-12 17.6-56.4 51.2-172.5 14.6-50.6 28.2-97.2 30.2-103.5 13.1-42.4 45.3-74.9 85.9-86.9 17-5 28.6-6.5 45.8-5.8 36.4 1.3 66.1 13.8 89.7 37.7 13.4 13.5 21.9 26.4 28.5 43 2.8 6.8 74.3 233.5 97.9 310 12.5 40.4 25.5 69.8 45.6 103.5 59.8 99.9 155.4 173.4 252.9 194.3 33.5 7.2 71.8 8.2 103.9 2.6 88.7-15.3 175.8-84 224.9-177.4 3.3-6.3 49.8-108.7 103.2-227.5 53.5-118.8 97.8-217.1 98.6-218.5 1.1-2.1 1.3 49 1.1 327-.3 311.7-.4 330.1-2.1 341.5-5.1 34.3-16.6 64.6-34.9 92.4-9.7 14.6-17.1 23.6-31.3 37.7-13.3 13.2-21.7 19.9-37 29.5-27.5 17.4-57.6 28.7-89.6 33.6-10.7 1.7-83.5 1.8-1351.3 2.1-907.3.2-1345.7 0-1357.5-.7-29.1-1.7-50.9-6.3-74.3-15.7-42.4-17-78.6-46.4-104.4-84.9-17.7-26.3-26.7-48-35-84.6l-2.8-12.4-.3-592.4c-.1-325.9 0-592.3.2-592 .2.2 53.2 115.6 117.9 256.4z"/></svg>
