<?xml version="1.0" encoding="UTF-8"?>
<svg width="175px" height="175px" viewBox="0 0 175 175" version="1.1" xmlns="http://www.w3.org/2000/svg" xmlns:xlink="http://www.w3.org/1999/xlink">
    <title>CloudRepo-Square-Black</title>
    <desc>Created with Sketch.</desc>
    <defs></defs>
    <g id="CloudRepo" stroke="none" stroke-width="1" fill="none" fill-rule="evenodd">
        <g id="Group" transform="translate(10.000000, 36.000000)" fill="#000000">
            <path d="M11.7564076,96.0243533 C9.51708066,96.0243533 7.50731489,95.537307 5.72704998,94.5631998 C3.94678508,93.5890926 2.54722674,92.1895342 1.52833299,90.3644828 C0.509439235,88.5394313 0,86.4065044 0,83.9656381 C0,81.5247717 0.509439235,79.3918448 1.52833299,77.5667934 C2.54722674,75.7417419 3.94678508,74.3421836 5.72704998,73.3680764 C7.50731489,72.3939692 9.51708066,71.9069229 11.7564076,71.9069229 C13.2791499,71.9069229 14.6395206,72.0860663 15.8375605,72.4443586 C17.0356004,72.802651 18.2280241,73.3176884 19.4148674,73.9894865 C19.9075193,74.2582057 20.1538416,74.6836715 20.1538416,75.2658965 C20.1538416,75.6017955 20.0306805,75.8985019 19.7843545,76.1560245 C19.5380285,76.4135471 19.213331,76.5423064 18.8102521,76.5423064 C18.5863195,76.5423064 18.3847831,76.4975206 18.2056369,76.4079475 C17.220333,75.8929023 16.2574369,75.501026 15.3169196,75.2323067 C14.3764023,74.9635875 13.290345,74.8292299 12.0587152,74.8292299 C10.1328941,74.8292299 8.49261169,75.2267045 7.13781889,76.0216655 C5.7830261,76.8166266 4.76414763,77.9026839 4.08115292,79.2798699 C3.39815821,80.657056 3.05666597,82.2189631 3.05666597,83.9656381 C3.05666597,85.7123131 3.39815821,87.2742202 4.08115292,88.6514063 C4.76414763,90.0285923 5.7830261,91.1146496 7.13781889,91.9096106 C8.49261169,92.7045717 10.1328941,93.1020463 12.0587152,93.1020463 C13.290345,93.1020463 14.3764023,92.9676887 15.3169196,92.6989694 C16.2574369,92.4302502 17.220333,92.0383739 18.2056369,91.5233287 C18.3847831,91.4337556 18.5863195,91.3889697 18.8102521,91.3889697 C19.213331,91.3889697 19.5380285,91.5121309 19.7843545,91.7584568 C20.0306805,92.0047828 20.1538416,92.3070874 20.1538416,92.6653797 C20.1538416,93.2476047 19.9075193,93.6730704 19.4148674,93.9417897 C18.2280241,94.6135877 17.0356004,95.1286252 15.8375605,95.4869175 C14.6395206,95.8452098 13.2791499,96.0243533 11.7564076,96.0243533 Z M23.3460248,95.8564046 C22.9205527,95.8564046 22.5622657,95.7108506 22.2711532,95.4197381 C21.9800407,95.1286256 21.8344867,94.7703386 21.8344867,94.3448665 L21.8344867,72.5451279 C21.8344867,72.1196557 21.9800407,71.7557706 22.2711532,71.4534614 C22.5622657,71.1511523 22.9205527,71 23.3460248,71 C23.7938902,71 24.1633736,71.1455541 24.4544861,71.4366666 C24.7455986,71.7277791 24.8911526,72.0972625 24.8911526,72.5451279 L24.8911526,94.3448665 C24.8911526,94.7703386 24.7400003,95.1286256 24.4376912,95.4197381 C24.1353821,95.7108506 23.7714969,95.8564046 23.3460248,95.8564046 Z M35.439488,96.0243533 C33.7152063,96.0243533 32.2036832,95.6548699 30.9048736,94.915892 C29.606064,94.1769141 28.6039802,93.1300445 27.8985923,91.7752517 C27.1932043,90.4204589 26.8405156,88.8697483 26.8405156,87.1230733 C26.8405156,85.3763983 27.1932043,83.8256876 27.8985923,82.4708948 C28.6039802,81.116102 29.606064,80.0692324 30.9048736,79.3302545 C32.2036832,78.5912766 33.7152063,78.2217932 35.439488,78.2217932 C37.1413765,78.2217932 38.641703,78.5912766 39.9405126,79.3302545 C41.2393222,80.0692324 42.2470042,81.116102 42.9635888,82.4708948 C43.6801735,83.8256876 44.0384604,85.3763983 44.0384604,87.1230733 C44.0384604,88.8697483 43.6801735,90.4204589 42.9635888,91.7752517 C42.2470042,93.1300445 41.2393222,94.1769141 39.9405126,94.915892 C38.641703,95.6548699 37.1413765,96.0243533 35.439488,96.0243533 Z M35.439488,93.2364052 C36.357612,93.2364052 37.2365347,93.0236723 38.0762823,92.5982002 C38.9160299,92.1727281 39.6102108,91.5009401 40.1588459,90.5828161 C40.707481,89.664692 40.9817944,88.5002595 40.9817944,87.0894835 C40.9817944,85.7011008 40.707481,84.5478648 40.1588459,83.6297407 C39.6102108,82.7116167 38.9160299,82.0454269 38.0762823,81.6311514 C37.2365347,81.216876 36.357612,81.0097413 35.439488,81.0097413 C34.4989707,81.0097413 33.6088516,81.216876 32.769104,81.6311514 C31.9293564,82.0454269 31.2407737,82.7116167 30.7033352,83.6297407 C30.1658968,84.5478648 29.8971816,85.7011008 29.8971816,87.0894835 C29.8971816,88.5002595 30.1658968,89.664692 30.7033352,90.5828161 C31.2407737,91.5009401 31.9293564,92.1727281 32.769104,92.5982002 C33.6088516,93.0236723 34.4989707,93.2364052 35.439488,93.2364052 Z M51.8324374,96.0243533 C50.6008076,96.0243533 49.531545,95.7332452 48.6246176,95.1510202 C47.7176902,94.5687952 47.0235093,93.773846 46.542054,92.7661489 C46.0605987,91.7584518 45.8198747,90.6500016 45.8198747,89.4407651 L45.8198747,79.90128 C45.8198747,79.4758079 45.971027,79.117521 46.2733361,78.8264085 C46.5756452,78.535296 46.9395304,78.3897419 47.3650025,78.3897419 C47.7904746,78.3897419 48.1487616,78.535296 48.4398741,78.8264085 C48.7309866,79.117521 48.8765406,79.4758079 48.8765406,79.90128 L48.8765406,89.1048677 C48.8765406,91.8368465 50.108152,93.2028155 52.5714116,93.2028155 C53.6910751,93.2028155 54.6931588,92.9117073 55.577693,92.3294823 C56.4622271,91.7472573 57.2963639,90.9635047 58.0801283,89.9782008 L58.0801283,79.90128 C58.0801283,79.4758079 58.2312806,79.117521 58.5335897,78.8264085 C58.8358989,78.535296 59.199784,78.3897419 59.6252562,78.3897419 C60.0507283,78.3897419 60.4090152,78.535296 60.7001277,78.8264085 C60.9912402,79.117521 61.1367943,79.4758079 61.1367943,79.90128 L61.1367943,94.3112768 C61.1367943,94.7367489 60.9912402,95.1006341 60.7001277,95.4029432 C60.4090152,95.7052523 60.0507283,95.8564046 59.6252562,95.8564046 C59.199784,95.8564046 58.8358989,95.7052523 58.5335897,95.4029432 C58.2312806,95.1006341 58.0801283,94.7367489 58.0801283,94.3112768 L58.0801283,92.9340976 C57.2291841,93.8746149 56.3110738,94.6247782 55.32577,95.1846099 C54.3404661,95.7444416 53.1760336,96.0243533 51.8324374,96.0243533 Z M71.2148733,96.0243533 C69.8264906,96.0243533 68.5109058,95.6716646 67.2680794,94.9662766 C66.0252529,94.2608886 65.0175709,93.2308137 64.2450031,91.8760209 C63.4724353,90.5212281 63.0861572,88.9369281 63.0861572,87.1230733 C63.0861572,85.3092185 63.4724353,83.7249184 64.2450031,82.3701256 C65.0175709,81.0153328 66.0252529,79.9852579 67.2680794,79.2798699 C68.5109058,78.5744819 69.8264906,78.2217932 71.2148733,78.2217932 C73.4094137,78.2217932 75.3240095,79.0727247 76.9587182,80.7746132 L76.9587182,72.5451279 C76.9587182,72.0972625 77.1098705,71.7277791 77.4121796,71.4366666 C77.7144888,71.1455541 78.0783739,71 78.503846,71 C78.9293182,71 79.2876051,71.1511523 79.5787176,71.4534614 C79.8698301,71.7557706 80.0153842,72.1196557 80.0153842,72.5451279 L80.0153842,94.3448665 C80.0153842,94.7703386 79.8698301,95.1286256 79.5787176,95.4197381 C79.2876051,95.7108506 78.9293182,95.8564046 78.503846,95.8564046 C78.0783739,95.8564046 77.7144888,95.7108506 77.4121796,95.4197381 C77.1098705,95.1286256 76.9587182,94.7703386 76.9587182,94.3448665 L76.9587182,93.4715334 C75.3240095,95.1734218 73.4094137,96.0243533 71.2148733,96.0243533 Z M71.6515399,93.1692257 C72.6816303,93.1692257 73.6501247,92.9396982 74.5570521,92.4806362 C75.4639795,92.0215741 76.2645268,91.4113667 76.9587182,90.6499955 L76.9587182,83.596151 C76.2645268,82.8347798 75.4639795,82.2245724 74.5570521,81.7655104 C73.6501247,81.3064484 72.6816303,81.0769208 71.6515399,81.0769208 C69.994438,81.0769208 68.6620584,81.6031547 67.6543613,82.6556384 C66.6466642,83.708122 66.1428232,85.1972521 66.1428232,87.1230733 C66.1428232,89.0488944 66.6466642,90.5380245 67.6543613,91.5905082 C68.6620584,92.6429918 69.994438,93.1692257 71.6515399,93.1692257 Z M84.7862849,95.8564046 C84.3608128,95.8564046 84.0025259,95.7108506 83.7114134,95.4197381 C83.4203009,95.1286256 83.2747468,94.7703386 83.2747468,94.3448665 L83.2747468,73.7879481 C83.2747468,73.362476 83.4203009,72.9985908 83.7114134,72.6962817 C84.0025259,72.3939725 84.3608128,72.2428202 84.7862849,72.2428202 L92.6126934,72.2428202 C95.658178,72.2428202 97.9422572,72.8698224 99.4649996,74.1238454 C100.987742,75.3778685 101.749102,77.0237491 101.749102,79.0615366 C101.749102,80.4051328 101.37402,81.6311459 100.623845,82.7396127 C99.8736709,83.8480796 98.7820154,84.6486269 97.3488462,85.1412788 C98.9611616,85.566751 100.064014,86.5688347 100.657435,88.1475602 C101.250857,89.7262857 101.547563,91.2769963 101.547563,92.7997386 L101.547563,94.3448665 C101.547563,94.7703386 101.402009,95.1286256 101.110897,95.4197381 C100.819784,95.7108506 100.461497,95.8564046 100.036025,95.8564046 C99.5657664,95.8564046 99.1906848,95.7164488 98.9107689,95.4365329 C98.630853,95.1566171 98.4908972,94.7927319 98.4908972,94.3448665 L98.4908972,93.3371744 C98.4908972,92.217511 98.390129,91.1818378 98.1885896,90.2301238 C97.9870502,89.2784099 97.5056021,88.4274784 96.7442309,87.6773039 C95.9828598,86.9271294 94.8296237,86.5520478 93.2844881,86.5520478 L86.3314128,86.5520478 L86.3314128,94.3448665 C86.3314128,94.7703386 86.1802605,95.1286256 85.8779514,95.4197381 C85.5756422,95.7108506 85.211757,95.8564046 84.7862849,95.8564046 Z M92.411155,83.6633305 C94.3369762,83.6633305 95.8652939,83.2826506 96.996154,82.5212794 C98.1270141,81.7599083 98.6924356,80.6850475 98.6924356,79.2966648 C98.6924356,77.9530686 98.2053893,76.9229937 97.2312821,76.2064091 C96.2571749,75.4898245 94.5944996,75.1315375 92.2432063,75.1315375 L86.3314128,75.1315375 L86.3314128,83.6633305 L92.411155,83.6633305 Z M111.92795,96.0243533 C109.195971,96.0243533 107.063044,95.2461989 105.529105,93.6898667 C103.995166,92.1335344 103.228208,89.9446252 103.228208,87.1230733 C103.228208,85.5331511 103.519316,84.066414 104.101541,82.7228179 C104.683766,81.3792217 105.579484,80.2931644 106.78872,79.4646135 C107.997957,78.6360625 109.487087,78.2217932 111.256155,78.2217932 C112.913257,78.2217932 114.346405,78.6080713 115.555641,79.3806391 C116.764878,80.1532069 117.682988,81.1832819 118.31,82.4708948 C118.937011,83.7585078 119.250512,85.1636644 119.250512,86.6864067 C119.250512,87.1118788 119.110556,87.4701658 118.830641,87.7612783 C118.550725,88.0523908 118.175643,88.1979448 117.705384,88.1979448 L106.318464,88.1979448 C106.49761,89.7654737 107.079826,90.9858885 108.06513,91.859226 C109.050434,92.7325635 110.427599,93.1692257 112.196668,93.1692257 C113.137185,93.1692257 113.960125,93.079654 114.665513,92.9005079 C115.370901,92.7213617 116.059484,92.463843 116.731282,92.1279439 C116.910428,92.0383709 117.111965,91.993585 117.335897,91.993585 C117.69419,91.993585 118.007691,92.1167461 118.27641,92.3630721 C118.545129,92.609398 118.679487,92.9228991 118.679487,93.3035847 C118.679487,93.7962366 118.388379,94.2105059 117.806154,94.5464049 C116.932816,95.0390568 116.070688,95.4085402 115.219744,95.6548662 C114.3688,95.9011922 113.271546,96.0243533 111.92795,96.0243533 Z M116.227436,85.7123044 C116.160256,84.6150342 115.874746,83.6969239 115.370898,82.957946 C114.867049,82.2189681 114.245645,81.6759395 113.506667,81.3288438 C112.76769,80.9817481 112.017526,80.8082029 111.256155,80.8082029 C110.494784,80.8082029 109.744621,80.9817481 109.005643,81.3288438 C108.266665,81.6759395 107.650859,82.2189681 107.158207,82.957946 C106.665555,83.6969239 106.385644,84.6150342 106.318464,85.7123044 L116.227436,85.7123044 Z M122.476285,103.582044 C122.050813,103.582044 121.692526,103.430892 121.401414,103.128582 C121.110301,102.826273 120.964747,102.462388 120.964747,102.036916 L120.964747,79.90128 C120.964747,79.4758079 121.110301,79.117521 121.401414,78.8264085 C121.692526,78.535296 122.050813,78.3897419 122.476285,78.3897419 C122.901757,78.3897419 123.265643,78.535296 123.567952,78.8264085 C123.870261,79.117521 124.021413,79.4758079 124.021413,79.90128 L124.021413,80.7746132 C125.656122,79.0727247 127.570718,78.2217932 129.765258,78.2217932 C131.153641,78.2217932 132.469225,78.5744819 133.712052,79.2798699 C134.954878,79.9852579 135.96256,81.0153328 136.735128,82.3701256 C137.507696,83.7249184 137.893974,85.3092185 137.893974,87.1230733 C137.893974,88.9369281 137.507696,90.5212281 136.735128,91.8760209 C135.96256,93.2308137 134.954878,94.2608886 133.712052,94.9662766 C132.469225,95.6716646 131.153641,96.0243533 129.765258,96.0243533 C127.570718,96.0243533 125.656122,95.1734218 124.021413,93.4715334 L124.021413,102.036916 C124.021413,102.484781 123.875859,102.854265 123.584747,103.145377 C123.293634,103.43649 122.924151,103.582044 122.476285,103.582044 Z M129.328591,93.1692257 C130.985693,93.1692257 132.318073,92.6429918 133.32577,91.5905082 C134.333467,90.5380245 134.837308,89.0488944 134.837308,87.1230733 C134.837308,85.1972521 134.333467,83.708122 133.32577,82.6556384 C132.318073,81.6031547 130.985693,81.0769208 129.328591,81.0769208 C128.298501,81.0769208 127.330007,81.3064484 126.423079,81.7655104 C125.516152,82.2245724 124.715604,82.8347798 124.021413,83.596151 L124.021413,90.6499955 C124.715604,91.4113667 125.516152,92.0215741 126.423079,92.4806362 C127.330007,92.9396982 128.298501,93.1692257 129.328591,93.1692257 Z M147.401028,96.0243533 C145.676746,96.0243533 144.165223,95.6548699 142.866413,94.915892 C141.567604,94.1769141 140.56552,93.1300445 139.860132,91.7752517 C139.154744,90.4204589 138.802055,88.8697483 138.802055,87.1230733 C138.802055,85.3763983 139.154744,83.8256876 139.860132,82.4708948 C140.56552,81.116102 141.567604,80.0692324 142.866413,79.3302545 C144.165223,78.5912766 145.676746,78.2217932 147.401028,78.2217932 C149.102916,78.2217932 150.603243,78.5912766 151.902052,79.3302545 C153.200862,80.0692324 154.208544,81.116102 154.925128,82.4708948 C155.641713,83.8256876 156,85.3763983 156,87.1230733 C156,88.8697483 155.641713,90.4204589 154.925128,91.7752517 C154.208544,93.1300445 153.200862,94.1769141 151.902052,94.915892 C150.603243,95.6548699 149.102916,96.0243533 147.401028,96.0243533 Z M147.401028,93.2364052 C148.319152,93.2364052 149.198074,93.0236723 150.037822,92.5982002 C150.877569,92.1727281 151.57175,91.5009401 152.120385,90.5828161 C152.669021,89.664692 152.943334,88.5002595 152.943334,87.0894835 C152.943334,85.7011008 152.669021,84.5478648 152.120385,83.6297407 C151.57175,82.7116167 150.877569,82.0454269 150.037822,81.6311514 C149.198074,81.216876 148.319152,81.0097413 147.401028,81.0097413 C146.46051,81.0097413 145.570391,81.216876 144.730644,81.6311514 C143.890896,82.0454269 143.202313,82.7116167 142.664875,83.6297407 C142.127436,84.5478648 141.858721,85.7011008 141.858721,87.0894835 C141.858721,88.5002595 142.127436,89.664692 142.664875,90.5828161 C143.202313,91.5009401 143.890896,92.1727281 144.730644,92.5982002 C145.570391,93.0236723 146.46051,93.2364052 147.401028,93.2364052 Z" id="CloudRepo"></path>
            <path d="M60.5349321,14.9717352 C63.5724874,10.1371617 66.0438765,6.88502447 68.0337126,5.15684431 C72.5832995,1.20551086 78.0086027,-0.55063667 83.2994812,0.150996009 C93.5705408,1.51305924 98.3857102,6.25622945 104.027375,19.5672223 C104.133188,19.5318611 104.237706,19.4990567 104.340955,19.468806 C107.13991,18.6487446 111.005043,18.5906777 113.55993,19.5205805 C120.235228,21.9501903 123.634609,26.9836607 122.901968,34.5658964 C121.989224,44.0120346 113.754531,48.7989022 98.947203,49.1741638 L102.327954,54.9866183 C102.879389,55.9346881 102.557853,57.1502766 101.609783,57.7017112 C100.661713,58.2531458 99.4461244,57.9316094 98.8946898,56.9835396 L93.7837528,48.1964134 C93.005461,46.8583127 93.9894566,45.1837292 95.537174,45.2124058 C110.728151,45.4938698 118.220914,41.7148929 118.948605,34.1838984 C119.501946,28.4572767 117.220911,25.0797436 112.201503,23.2528286 C110.511444,22.6376972 107.496555,22.6829907 105.457694,23.2803534 C103.181569,23.9472315 99.1945922,26.962714 93.6137756,32.099468 C92.2752854,33.3314553 90.8508839,34.6773453 89.2048718,36.2596698 C88.3975381,37.035766 82.3717309,42.8911903 80.7864089,44.3952691 C77.814542,47.2148365 75.7806123,48.9930031 74.2630699,50.0298879 C64.5465153,56.6688775 55.7979289,58.1038099 48.2661424,55.622305 C45.6029982,54.7448764 43.2940548,53.4353628 41.3435077,51.8767323 C40.6560813,51.327428 40.0599752,50.7832167 39.5552716,50.265667 C39.3739919,50.0797733 39.2158097,49.9087459 39.0807579,49.7552429 C38.9282631,49.5773697 38.9261564,49.5748489 38.9137399,49.5597671 C38.7822033,49.4021902 38.712134,49.3152808 38.6350456,49.2168524 C38.4220984,48.944956 38.1904584,48.6300379 37.9462696,48.2739366 C37.2573786,47.2693251 36.5945151,46.1242181 36.0080065,44.8524506 C34.3195618,41.1912783 33.5802798,37.2164293 34.239035,33.0767276 C35.1438647,27.3906624 38.2141108,21.6418918 43.0497785,18.4969195 C49.1511673,14.5287604 55.0211276,13.3683672 60.5349294,14.9717345 Z M100.480028,21.3716531 C100.467851,21.3459057 100.456166,21.3197827 100.444988,21.2932906 C95.2635783,9.0132312 91.4655726,5.24046254 82.7773482,4.08830185 C78.6470891,3.54058094 74.3503834,4.93140625 70.6380942,8.15554348 C69.0863318,9.50325497 66.9368798,12.3039305 64.2635632,16.5065471 C67.5113543,18.2484152 70.6170641,21.0072835 73.5526976,24.7732751 C74.2269866,25.63829 74.0723727,26.8861424 73.2073578,27.5604315 C72.3423429,28.2347205 71.0944905,28.0801066 70.4202015,27.2150917 C62.7753676,17.4078798 54.6312768,15.7025444 45.2152154,21.8264665 C41.441992,24.2804571 38.9044645,29.0317583 38.1614577,33.700907 C37.6378558,36.9912881 38.2335906,40.1943361 39.6147146,43.1891235 C40.1025551,44.246942 40.6541204,45.1997798 41.2218854,46.0277529 C41.4175261,46.3130563 41.5995776,46.5605581 41.7619523,46.7678823 C41.8162266,46.837181 41.8633408,46.8956184 41.90253,46.9429039 C42.0096459,47.070731 42.0334946,47.098496 42.0627218,47.1317163 C42.1535828,47.2349911 42.2656903,47.3562022 42.3988088,47.4927089 C42.792386,47.8963037 43.2677727,48.330305 43.8229029,48.7738949 C45.4225179,50.0521049 47.3222156,51.1295154 49.5090074,51.8499998 C55.8341808,53.9339607 63.3015205,52.7091768 72.0223829,46.7505097 C73.3082007,45.8719543 75.232757,44.1894076 78.05274,41.5139405 C79.6173908,40.0294735 85.6296849,34.1871804 86.4523427,33.3963529 C88.1174722,31.7956507 89.5618159,30.4309177 90.9239777,29.1771423 C94.7928985,25.6160694 97.9190978,23.0211306 100.480028,21.3716531 Z M84.0227239,50.6693631 C83.4584375,49.7288859 83.7634005,48.509034 84.7038777,47.9447476 C85.644355,47.3804613 86.8642069,47.6854243 87.4284932,48.6259015 L91.4002687,55.2455272 C91.964555,56.1860045 91.659592,57.4058564 90.7191148,57.9701427 C89.7786376,58.5344291 88.5587857,58.2294661 87.9944993,57.2889889 L84.0227239,50.6693631 Z M77.7820577,58.2531458 C76.6852822,58.2531458 75.7961699,57.3640336 75.7961699,56.2672581 C75.7961699,55.1704825 76.6852822,54.2813703 77.7820577,54.2813703 C78.8788332,54.2813703 79.7679454,55.1704825 79.7679454,56.2672581 C79.7679454,57.3640336 78.8788332,58.2531458 77.7820577,58.2531458 Z" id="Combined-Shape"></path>
        </g>
    </g>
</svg>
